<?xml version="1.0" encoding="utf-8"?>
<!-- Generator: Adobe Illustrator 17.0.0, SVG Export Plug-In . SVG Version: 6.00 Build 0)  -->
<!DOCTYPE svg PUBLIC "-//W3C//DTD SVG 1.1//EN" "http://www.w3.org/Graphics/SVG/1.1/DTD/svg11.dtd">
<svg version="1.1" id="Capa_1" xmlns="http://www.w3.org/2000/svg" xmlns:xlink="http://www.w3.org/1999/xlink" x="0px" y="0px"
	 width="110px" height="110px" viewBox="0 0 110 110" enable-background="new 0 0 110 110" xml:space="preserve">
<circle fill="#444242" cx="49.097" cy="45.735" r="2.046"/>
<circle fill="#444242" cx="57.215" cy="44.275" r="2.046"/>
<path fill="#67A8AA" d="M88.507,37.727c-4.623,0.377-4.73,2.563-9.145,9.396c-4.416,6.834-7.568,4.626-7.568,4.626
	c4.729-2.209,5.989-5.467,5.256-8.095c-0.737-2.628-2-4.837-2.524-7.753c-0.528-2.917,3.049-4.023,5.678-2.552
	c2.628,1.473,1.997,3.681-0.317,4.521c-2.312,0.842-1.573,1.894-0.839,2.102c0.735,0.211,6.411-0.209,6.099-4.836
	c-0.317-4.626-9.148-6.624-13.039-3.154c-3.89,3.47-1.054,7.885-0.735,12.511c0.317,4.628-6.101,5.573-5.574,0.738
	c0.524-4.837,3.891-4.522,2.103-12.934c-1.789-8.409-10.513-9.67-17.664-8.621c-7.149,1.052-10.934,6.414-11.881,11.565
	c-0.943,5.152,3.05,13.563,3.05,13.563c-4.942-0.211-5.361-4.1-4.626-9.989c0.736-5.888-2.418-8.831-5.152-9.253
	c-2.734-0.419-7.464,0.738-9.252,4.944c-1.787,4.205,1.894,8.096,5.467,7.99c3.576-0.105,3.996-3.889,0.844-3.364
	c-3.154,0.526-5.047-5.677,0.63-6.835c5.677-1.156,3.363,6.941,3.363,6.941c-3.89,9.462,2.945,13.388,2.945,13.388
	s3.925,1.191,3.854,2.699c-0.07,1.508-1.961,2.138-6.832,2.734c-4.872,0.594-6.117-1.104-6.327-1.84
	c-0.209-0.736-0.365-2.366,2.42-2.576c2.784-0.212,1.892,3.153,3.311,3.679c1.419,0.527,1.839-0.786,1.839-3.469
	c0-2.682-3.469-4.626-6.414-4.679c-2.945-0.052-6.412,3.628-5.885,6.834c0.524,3.207,2.941,4.889,6.202,5.571
	c3.258,0.684,13.141-0.368,13.141-0.368s-6.833,2.418-10.986,9.096c-4.152,6.675,0.84,15.56,6.361,14.613
	c5.52-0.945,6.886-5.467,6.729-11.249c-0.156-5.782-4.626-7.36-3.784-0.894c0.84,6.467-1.156,7.569-2.682,7.989
	c-1.526,0.423-6.361-1.206-3.312-7.779c3.049-6.571,17.453-13.562,17.453-13.562s5.784,3.891,2.474,9.252
	c-3.312,5.361-5.943-0.631-3.156-1.997c2.787-1.368,1.369-3.681,0.368-3.734c-0.999-0.052-5.046,0.474-6.569,4.995
	c-1.526,4.521,1.102,7.359,3.995,8.149c2.889,0.786,7.884-3.103,7.884-3.103s0.104,3.733,0.315,8.517
	c0.212,4.784,5.363,5.782,9.936,4.784c4.574-1,5.309-6.938,4.836-9.515c-0.473-2.577-4.364-4.994-7.15-3.734
	c-2.784,1.263-2.47,4.995-0.629,5.153c1.838,0.157,1.945-1.84,2.784-1.105c0.842,0.738,2.312,4.311-1.997,5.574
	c-4.312,1.262-5.678-4.732-3.153-8.59c2.519-3.862,2.208-12.123,2.208-12.123l0,0c0,0,0,0,6.307,7.36
	c6.309,7.361,13.038,4.629,16.191,2.102c3.153-2.521,4.626-9.777,1.472-12.721c-3.153-2.945-5.256-2.945-8.513-1.893
	c-3.263,1.052-3.998,7.044-1.58,9.251c2.418,2.21,3.784-0.735,2.732-1.785c-1.051-1.052-1.576-4.418,1.473-4.837
	c3.051-0.421,5.994,8.936-2.626,8.936c-8.624,0-9.99-11.565-9.99-11.565c7.358,0,10.901-2.611,12.615-4.205
	c1.478-1.373,3.155-8.097,6.1-10.199c2.941-2.101,4.624,2.629,3.047,4.732c-1.579,2.103,0.525,5.046,3.47,0.735
	C96.498,43.548,93.132,37.345,88.507,37.727z M49.187,46.877c-0.678,0-1.226-0.549-1.226-1.226c0-0.678,0.548-1.227,1.226-1.227
	c0.678,0,1.229,0.55,1.229,1.227C50.416,46.328,49.864,46.877,49.187,46.877z M57.395,45.651c-0.676,0-1.224-0.547-1.224-1.227
	c0-0.675,0.549-1.227,1.224-1.227c0.681,0,1.227,0.553,1.227,1.227C58.622,45.103,58.076,45.651,57.395,45.651z"/>
<g>
	<path fill="#444242" d="M57.186,47.863c-1.815,0-3.291-1.476-3.291-3.291c0-1.812,1.475-3.289,3.291-3.289
		c1.812,0,3.289,1.477,3.289,3.289C60.474,46.388,58.998,47.863,57.186,47.863z M57.186,41.66c-1.607,0-2.915,1.307-2.915,2.912
		c0,1.608,1.309,2.915,2.915,2.915c1.606,0,2.912-1.308,2.912-2.915C60.098,42.967,58.791,41.66,57.186,41.66z"/>
</g>
<g>
	<rect x="60.98" y="44.304" fill="#444242" width="0.151" height="13.699"/>
</g>
<path fill-rule="evenodd" clip-rule="evenodd" fill="#444242" d="M53.455,47.328c0.198-0.235,0.577-0.471,1.021-0.466
	c0.96,0.01,1.589,1.006,2.445,0.946c0.346-0.025,0.554-0.191,0.453-0.519c-0.06-0.195-0.352-0.384-0.54-0.256
	c-0.065,0.046-0.078,0.079-0.039,0.225c-0.103-0.021-0.146-0.171-0.131-0.292c0.46-0.33,1.313,0.231,1.097,0.802
	c-0.418,1.112-3.137,1.565-4.065,0.856c-0.622,0.987-3.118,1.507-4.004,0.746c-0.121-0.105-0.273-0.363-0.212-0.612
	c0.067-0.287,0.575-0.797,0.829-0.627c0.095,0.06,0.131,0.259,0.004,0.334c0.02-0.404-0.473-0.075-0.514,0.116
	c-0.094,0.47,0.324,0.559,0.708,0.401c0.815-0.34,1.26-2.081,2.586-1.804C53.229,47.206,53.301,47.274,53.455,47.328z"/>
<g>
	<path fill="#444242" d="M60.726,44.776c-0.261,0-0.471-0.212-0.471-0.471c0-0.259,0.211-0.471,0.471-0.471
		c0.261,0,0.471,0.213,0.471,0.471C61.197,44.564,60.986,44.776,60.726,44.776z M60.726,44.077c-0.125,0-0.227,0.102-0.227,0.227
		c0,0.125,0.102,0.227,0.227,0.227c0.125,0,0.227-0.102,0.227-0.227C60.953,44.179,60.851,44.077,60.726,44.077z"/>
</g>
<g>
	<path fill="#67A8AA" d="M55,109.011C25.218,109.011,0.989,84.781,0.989,55C0.989,25.218,25.218,0.989,55,0.989
		c29.781,0,54.011,24.229,54.011,54.011C109.011,84.781,84.781,109.011,55,109.011z M55,3.989C26.873,3.989,3.989,26.873,3.989,55
		c0,28.127,22.884,51.011,51.011,51.011c28.127,0,51.011-22.884,51.011-51.011C106.011,26.873,83.127,3.989,55,3.989z"/>
</g>
</svg>
